inDegrees=yes
name=ik_lifting_orientations
DataType=double
version=3
OpenSimVersion=4.5-2024-01-10-34fd6af
endheader
time	pelvis_tilt	pelvis_list	pelvis_rotation	pelvis_tx	pelvis_ty	pelvis_tz	hip_flexion_r	hip_adduction_r	hip_rotation_r	knee_angle_r	knee_angle_r_beta	ankle_angle_r	subtalar_angle_r	mtp_angle_r	hip_flexion_l	hip_adduction_l	hip_rotation_l	knee_angle_l	knee_angle_l_beta	ankle_angle_l	subtalar_angle_l	mtp_angle_l	lumbar_extension	lumbar_bending	lumbar_rotation	arm_flex_r	arm_add_r	arm_rot_r	elbow_flex_r	pro_sup_r	wrist_flex_r	wrist_dev_r	arm_flex_l	arm_add_l	arm_rot_l	elbow_flex_l	pro_sup_l	wrist_flex_l	wrist_dev_l
1.64	-44.5144907060207	-4.466758343393997	-129.8860187524767	0	0.9399999998679526	0	41.15317432478449	-10.08389773909401	0	60.4923996101753	1.055791545629693	-5.028039070015454	0	0	41.15317432478449	-10.08389773909401	0	60.4923996101753	1.055791545629693	-5.028039070015454	0	0	-38.5847311491794	27.02107658468409	11.2833981765257	167.910756190688	83.26551295745269	-89.58221354910346	41.0302138274532	-0.08690119329674248	0	0	0	-10.07118033150264	0	90.4896222588021	-0.08690119329674248	0	0
1.65	-44.79986984165724	-4.420257830998978	-129.9998595359888	0	0.9399999998679526	0	41.17158490382162	-10.08284398474485	0	60.4901781617124	1.055752774039852	-5.027607997931987	0	0	41.17158490382162	-10.08284398474485	0	60.4901781617124	1.055752774039852	-5.027607997931987	0	0	-38.82563880898993	27.41108973455209	12.67251062917265	168.2056918444955	84.00279022871568	-89.66218300896969	46.08183110588134	-0.08658995764023936	0	0	0	-10.08501644285638	0	90.48786625250607	-0.08658995764023936	0	0
1.66	-44.3460076586409	-4.277935020835605	-130.0740358046518	0	0.9399999998679526	0	41.1857172867153	-10.08203988757464	0	60.48847196288666	1.055722995252649	-5.027279707285025	0	0	41.1857172867153	-10.08203988757464	0	60.48847196288666	1.055722995252649	-5.027279707285025	0	0	-38.58475288583611	27.53399660271621	13.33500510637028	168.8007765126976	84.73914658514235	-89.66194202481593	49.8403861852426	-0.08635079201899142	0	0	0	-10.09565624190741	0	90.48651686899137	-0.08635079201899142	0	0
1.67	-43.69212365342959	-4.323085354490477	-129.8828832789955	0	0.9399999998679526	0	41.19920884620437	-10.08129123556964	0	60.48682738177237	1.055694291897389	-5.026976245284617	0	0	41.19920884620437	-10.08129123556964	0	60.48682738177237	1.055694291897389	-5.026976245284617	0	0	-38.13743440698488	27.5726497230643	13.64155730820274	169.1209696187015	85.36647059292723	-89.66977495685158	52.98509953544201	-0.08612128299408363	0	0	0	-10.10590402220584	0	90.48522196946247	-0.08612128299408363	0	0
1.68	-43.21481923645138	-4.333114352894594	-129.7744606556535	0	0.9399999998679526	0	41.21293231867856	-10.0805559159344	0	60.48513618456666	1.055664774937849	-5.026681424341089	0	0	41.21293231867856	-10.0805559159344	0	60.48513618456666	1.055664774937849	-5.026681424341089	0	0	-37.60853059489973	27.32858974039554	13.64467912819563	168.8698011356798	85.43192884851597	-89.68774319764428	55.37047814631551	-0.08588628093272346	0	0	0	-10.11644479689332	0	90.48389607927668	-0.08588628093272346	0	0
1.69	-43.29155077926066	-4.297358599769605	-129.8350612301939	0	0.9399999998679526	0	41.22143614176886	-10.08008815756216	0	60.48410505031518	1.05564677825013	-5.026492647645711	0	0	41.22143614176886	-10.08008815756216	0	60.48410505031518	1.05564677825013	-5.026492647645711	0	0	-37.61734314358805	27.1923328514287	13.39722901995105	168.4454126697926	85.15953590656451	-89.69737434680951	56.87292579817075	-0.08574155765958313	0	0	0	-10.1229067472275	0	90.48307954453333	-0.08574155765958313	0	0
1.7	-43.69814370111971	-4.321816157662743	-129.8853379403003	0	0.9399999998679526	0	41.22439389091004	-10.07972890891917	0	60.48372057965673	1.055640067971263	-5.02630983310887	0	0	41.22439389091004	-10.07972890891917	0	60.48372057965673	1.055640067971263	-5.02630983310887	0	0	-37.90950297454076	27.33273711960596	13.75821041597736	168.0661912635734	85.11854294295944	-89.7198450750822	58.7321612388633	-0.08569645320223404	0	0	0	-10.12482187230939	0	90.48282505693859	-0.08569645320223404	0	0
1.71	-43.1150764834646	-4.403513049532604	-129.6708281468891	0	0.9399999998679526	0	41.23276806161692	-10.07927312502124	0	60.4827005184257	1.05562226454421	-5.026126572563561	0	0	41.23276806161692	-10.07927312502124	0	60.4827005184257	1.05562226454421	-5.026126572563561	0	0	-37.46244271498699	27.22872931619193	13.28040770322652	167.9015996698558	85.26381153791809	-89.69768667064099	60.21986058672668	-0.08555362867552735	0	0	0	-10.13120909923724	0	90.48201923527999	-0.08555362867552735	0	0
1.72	-42.70342704003413	-4.420898762452805	-129.5724782059585	0	0.9399999998679526	0	41.23966938584032	-10.0788954050907	0	60.48186938091077	1.055607758458037	-5.025974764311436	0	0	41.23966938584032	-10.0788954050907	0	60.48186938091077	1.055607758458037	-5.025974764311436	0	0	-36.98035809276231	27.06700578347517	13.30678895760806	167.7904112754606	85.37577612001675	-89.71040605137343	61.77072892099964	-0.08543624820362639	0	0	0	-10.13644626368684	0	90.48135696968177	-0.08543624820362639	0	0
1.73	-43.25125816070908	-4.643243095549794	-129.4244963387542	0	0.9399999998679526	0	41.33864787875957	-10.07219589767978	0	60.47182295035707	1.055432415166802	-5.023216334211919	0	0	41.33864787875957	-10.07219589767978	0	60.47182295035707	1.055432415166802	-5.023216334211919	0	0	-37.20807715233677	27.13180525452352	13.42198967724033	167.6930920777323	85.29872832447231	-89.73238124586791	63.00012734725429	-0.08387239788387288	0	0	0	-10.20216607488799	0	90.47253356947448	-0.08387239788387288	0	0
1.74	-43.11331839640793	-4.602386293032777	-129.4402528253972	0	0.9399999998679526	0	41.57296303487493	-10.05711217726306	0	60.4475933346016	1.055009528595376	-5.017184214334027	0	0	41.57296303487493	-10.05711217726306	0	60.4475933346016	1.055009528595376	-5.017184214334027	0	0	-36.81215276500802	26.77329650013862	13.20567681691213	167.3104509026686	85.00340181922287	-89.75050591567823	63.25206738812047	-0.08017850439695029	0	0	0	-10.35671545317733	0	90.45169225605666	-0.08017850439695029	0	0
1.75	-43.14397932384419	-4.712598396880966	-129.3176710040409	0	0.9399999998679526	0	41.58273387466323	-10.05656581256528	0	60.44658233740516	1.05499188336557	-5.016972023628311	0	0	41.58273387466323	-10.05656581256528	0	60.44658233740516	1.05499188336557	-5.016972023628311	0	0	-36.70828760441778	26.72637350382316	12.98843961793703	166.8216717168898	84.76297150646494	-89.7623179049538	63.33751672383772	-0.08001863692313571	0	0	0	-10.36359380135741	0	90.45079027195145	-0.08001863692313571	0	0
